HIERARCHY
ROOT Hips
{
  OFFSET 50.6394 51.7547 1.08154
  CHANNELS 6 Xposition Yposition Zposition Zrotation Xrotation Yrotation
  JOINT spine
  {
    OFFSET 0 7.80059 0.448573
    CHANNELS 3 Zrotation Xrotation Yrotation
    JOINT spine1
    {
      OFFSET 0 10.1364 0
      CHANNELS 3 Zrotation Xrotation Yrotation
      JOINT spine2
      {
        OFFSET 0 9.71251 0
        CHANNELS 3 Zrotation Xrotation Yrotation
        JOINT Neck
        {
          OFFSET 0 24.9361 1.18887
          CHANNELS 3 Zrotation Xrotation Yrotation
          JOINT Head
          {
            OFFSET 0 7.53384 0
            CHANNELS 3 Zrotation Xrotation Yrotation
            End Site
            {
              OFFSET 0 18.2361 -6.01402
            }
          }
        }
        JOINT RightShoulder
        {
          OFFSET -4.08965 10.4888 -0.569457
          CHANNELS 3 Zrotation Xrotation Yrotation
          JOINT RightArm
          {
            OFFSET 0 13.757 0
            CHANNELS 3 Zrotation Xrotation Yrotation
            JOINT RightArmRoll
            {
              OFFSET 0 6.94478 0
              CHANNELS 3 Zrotation Xrotation Yrotation
              JOINT RightForeArm
              {
                OFFSET 0 20.2277 0
                CHANNELS 3 Zrotation Xrotation Yrotation
                JOINT RightForeArmRoll
                {
                  OFFSET 0 7.79312 0
                  CHANNELS 3 Zrotation Xrotation Yrotation
                  JOINT RightHand
                  {
                    OFFSET 0 15.6391 0
                    CHANNELS 3 Zrotation Xrotation Yrotation
                    End Site
                    {
                      OFFSET 0 0 0
                    }
                  }
                }
              }
            }
          }
        }
        JOINT LeftShoulder
        {
          OFFSET 4.08965 10.4888 -0.569457
          CHANNELS 3 Zrotation Xrotation Yrotation
          JOINT LeftArm
          {
            OFFSET 0 13.757 0
            CHANNELS 3 Zrotation Xrotation Yrotation
            JOINT LeftArmRoll
            {
              OFFSET 0 6.94478 0
              CHANNELS 3 Zrotation Xrotation Yrotation
              JOINT LeftForeArm
              {
                OFFSET 0 20.2277 0
                CHANNELS 3 Zrotation Xrotation Yrotation
                JOINT LeftForeArmRoll
                {
                  OFFSET 0 7.79312 0
                  CHANNELS 3 Zrotation Xrotation Yrotation
                  JOINT LeftHand
                  {
                    OFFSET 0 15.6391 0
                    CHANNELS 3 Zrotation Xrotation Yrotation
                    End Site
                    {
                      OFFSET 0 0 0
                    }
                  }
                }
              }
            }
          }
        }
      }
    }
  }
  JOINT RightUpLeg
  {
    OFFSET -6.91416 -1.26788 -1.06358
    CHANNELS 3 Zrotation Xrotation Yrotation
    JOINT RightUpLegRoll
    {
      OFFSET 0 18.3378 0
      CHANNELS 3 Zrotation Xrotation Yrotation
      JOINT RightLeg
      {
        OFFSET 0 -22.7085 0
        CHANNELS 3 Zrotation Xrotation Yrotation
        JOINT RightLegRoll
        {
          OFFSET 0 22.7828 0
          CHANNELS 3 Zrotation Xrotation Yrotation
          JOINT RightFoot
          {
            OFFSET 0 18.9629 0
            CHANNELS 3 Zrotation Xrotation Yrotation
            JOINT RightToeBase
            {
              OFFSET 0 15.852 0
              CHANNELS 3 Zrotation Xrotation Yrotation
              End Site
              {
                OFFSET 0.00671906 7.67701 -0.884892
              }
            }
          }
        }
      }
    }
  }
  JOINT LeftUpLeg
  {
    OFFSET 6.91416 -1.26788 -1.06358
    CHANNELS 3 Zrotation Xrotation Yrotation
    JOINT LeftUpLegRoll
    {
      OFFSET 0 18.3379 0
      CHANNELS 3 Zrotation Xrotation Yrotation
      JOINT LeftLeg
      {
        OFFSET 0 22.7084 0
        CHANNELS 3 Zrotation Xrotation Yrotation
        JOINT LeftLegRoll
        {
          OFFSET 0 22.9934 0
          CHANNELS 3 Zrotation Xrotation Yrotation
          JOINT LeftFoot
          {
            OFFSET 0 18.7522 0
            CHANNELS 3 Zrotation Xrotation Yrotation
            JOINT LeftToeBase
            {
              OFFSET 0 15.852 0
              CHANNELS 3 Zrotation Xrotation Yrotation
              End Site
              {
                OFFSET -0.030112 7.677 -0.884893
              }
            }
          }
        }
      }
    }
  }
}
MOTION
Frames: 9
Frame Time: 0.00208333
57.8888 94.0567 35.9065 -2.29534 -5.0868 2.20234 0.373104 -1.3193 -0.00400411 0.754661 1.36395 -0.0382706 0.7558 3.00895 -0.0510032 3.31006 17.2329 -1.29588 -2.26544 -11.4982 -0.747561 78.7956 -4.33006 -4.00731 104.968 26.1025 -58.1661 2.54444e-014 0 -1.27222e-014 -15.4855 83.5936 11.4542 -7.24351e-006 8.91949e-007 -2.99998 8.03005 -4.95103 0.697575 -60.3804 -0.823306 0.698092 -116.806 17.7823 10.0407 4.62981e-006 -1.12374e-006 3.00556e-006 -13.1917 5.81872 1.44016 -1.26957e-006 -9.87567e-007 3 -8.0289 -4.95145 -0.697699 -179.087 0.641524 -2.54044 180 7.0156e-015 178.981 -179.894 8.8548 179.348 2.80017e-006 -3.04261e-006 0.013653 -15.765 67.301 18.9982 8.13649 25.2327 -3.48774 -175.752 -0.00458348 3.70032 4.54188e-006 -4.6773e-006 -1.26545 -4.45543 -14.8826 -0.191283 1.74305e-006 1.7099e-006 -0.298944 25.2919 72.9491 -25.0774 -8.14466 25.3539 3.49702 
57.8644 94.0533 35.8624 -2.29422 -5.05858 2.22277 0.373096 -1.31564 -0.0043438 0.7541 1.37127 -0.0398803 0.75525 3.01627 -0.0525995 3.24347 17.218 -1.2755 -2.23916 -11.4904 -0.742271 78.7492 -4.33018 -4.00449 105.038 26.0873 -58.1303 6.36111e-015 -4.77083e-015 -3.18055e-015 -14.9235 83.5424 10.949 -7.24351e-006 8.91949e-007 -2.99998 8.03005 -4.95103 0.697575 -60.4289 -0.834472 0.710091 -116.732 17.7864 10.0627 4.62981e-006 -1.12374e-006 3.00556e-006 -13.2285 5.91963 1.45554 -1.26957e-006 -9.87567e-007 3 -8.0289 -4.95145 -0.697699 -179.081 0.684028 -2.54652 180 7.0156e-015 178.981 -179.897 8.86142 179.347 2.80017e-006 -3.04261e-006 0.01389 -15.7609 67.2893 18.9877 8.13649 25.2327 -3.48774 -175.748 0.0520092 3.69752 4.54188e-006 -4.6773e-006 -1.26449 -4.4545 -14.9025 -0.191527 1.74305e-006 1.7099e-006 -0.298944 25.2779 72.944 -25.0703 -8.14457 25.3526 3.49681 
57.8648 94.0531 35.8656 -2.29271 -5.02967 2.24228 0.372983 -1.31223 -0.00452784 0.753318 1.3781 -0.0412049 0.754474 3.0231 -0.0539064 3.17978 17.2036 -1.25586 -2.21656 -11.4826 -0.737585 78.7032 -4.33021 -4.00166 105.107 26.0716 -58.0945 1.59028e-014 1.74931e-014 1.59028e-014 -14.3718 83.4911 10.4538 -7.24351e-006 8.91949e-007 -2.99998 8.03005 -4.95103 0.697575 -60.4772 -0.845805 0.722168 -116.659 17.7914 10.0858 4.62981e-006 -1.12374e-006 3.00556e-006 -13.2664 6.01834 1.47057 -1.26957e-006 -9.87567e-007 3 -8.0289 -4.95145 -0.697699 -179.076 0.727961 -2.5523 180 7.0156e-015 178.982 -179.9 8.86911 179.347 2.80017e-006 -3.04261e-006 0.0142046 -15.7567 67.2778 18.9774 8.13649 25.2327 -3.48774 -175.744 0.108699 3.69502 4.54188e-006 -4.6773e-006 -1.26354 -4.45377 -14.9216 -0.191829 1.74305e-006 1.7099e-006 -0.298944 25.2641 72.9387 -25.0631 -8.14448 25.3512 3.4966 
57.8653 94.0552 35.8564 -2.29093 -5.00028 2.26115 0.372798 -1.30898 -0.00460293 0.752381 1.38459 -0.0423299 0.75354 3.02959 -0.055011 3.11813 17.1895 -1.23672 -2.19652 -11.4747 -0.733321 78.6575 -4.33018 -3.99881 105.177 26.0557 -58.0589 9.54166e-015 7.95139e-015 6.36111e-015 -13.8296 83.4397 9.96784 -7.24351e-006 8.91949e-007 -2.99998 8.03005 -4.95103 0.697575 -60.5252 -0.857256 0.734299 -116.586 17.7969 10.1097 4.62981e-006 -1.12374e-006 3.00556e-006 -13.3051 6.11552 1.48535 -1.26957e-006 -9.87567e-007 3 -8.0289 -4.95145 -0.697699 -179.072 0.772893 -2.55788 180 7.0156e-015 178.982 -179.903 8.87754 179.346 2.80017e-006 -3.04261e-006 0.0145735 -15.7526 67.2665 18.9671 8.13649 25.2327 -3.48774 -175.74 0.165456 3.69273 4.54188e-006 -4.6773e-006 -1.26262 -4.45319 -14.9402 -0.192174 1.74305e-006 1.7099e-006 -0.298944 25.2504 72.9332 -25.0557 -8.14439 25.3499 3.49639 
57.8528 94.0522 35.8446 -2.289 -4.97062 2.27966 0.372572 -1.30584 -0.00461575 0.751355 1.39088 -0.0433409 0.752516 3.03588 -0.0559998 3.05765 17.1757 -1.21788 -2.17795 -11.4668 -0.729298 78.6118 -4.33011 -3.99596 105.246 26.0395 -58.0233 3.18055e-015 -1.11319e-014 -0 -13.2959 83.388 9.49025 -7.24351e-006 8.91949e-007 -2.99998 8.03005 -4.95103 0.697575 -60.5732 -0.868774 0.74646 -116.513 17.8027 10.134 4.62981e-006 -1.12374e-006 3.00556e-006 -13.3442 6.21181 1.49999 -1.26957e-006 -9.87567e-007 3 -8.0289 -4.95145 -0.697699 -179.068 0.818397 -2.56334 180 7.0156e-015 178.983 -179.906 8.88641 179.345 2.80017e-006 -3.04261e-006 0.0149735 -15.7484 67.2553 18.9569 8.13649 25.2327 -3.48774 -175.737 0.222252 3.69055 4.54188e-006 -4.6773e-006 -1.2617 -4.45269 -14.9584 -0.192543 1.74305e-006 1.7099e-006 -0.298944 25.2368 72.9277 -25.0483 -8.14431 25.3486 3.49619 
57.8273 94.0494 35.8176 -2.28706 -4.94088 2.29807 0.372335 -1.30271 -0.004613 0.750307 1.39713 -0.0443233 0.751469 3.04213 -0.0569597 2.99747 17.1619 -1.19911 -2.15975 -11.459 -0.725336 78.5663 -4.33004 -3.99311 105.316 26.0233 -57.9877 9.54166e-015 3.18055e-015 -6.36111e-015 -12.7698 83.3358 9.02025 -7.24351e-006 8.9195e-007 -2.99998 8.03005 -4.95103 0.697575 -60.6211 -0.880309 0.75863 -116.44 17.8086 10.1585 4.62981e-006 -1.12374e-006 3.00556e-006 -13.3834 6.30789 1.51461 -1.26957e-006 -9.87567e-007 3 -8.0289 -4.95145 -0.697699 -179.064 0.864044 -2.56877 180 7.01561e-015 178.984 -179.909 8.89538 179.345 2.80017e-006 -3.04261e-006 0.0153813 -15.7442 67.2442 18.9466 8.13649 25.2327 -3.48774 -175.734 0.279057 3.6884 4.54188e-006 -4.6773e-006 -1.26078 -4.45221 -14.9766 -0.192917 1.74305e-006 1.7099e-006 -0.298944 25.2232 72.9221 -25.0408 -8.14422 25.3473 3.49598 
57.8276 94.0486 35.8107 -2.28521 -4.91128 2.31666 0.372119 -1.29954 -0.00464139 0.749304 1.40347 -0.0453628 0.750468 3.04847 -0.0579775 2.93672 17.148 -1.1802 -2.14082 -11.4511 -0.721254 78.5206 -4.32998 -3.99026 105.385 26.0072 -57.9522 -3.18055e-015 1.43125e-014 -3.18055e-015 -12.2507 83.2832 8.55719 -7.24351e-006 8.91949e-007 -2.99998 8.03005 -4.95103 0.697575 -60.6691 -0.89181 0.770784 -116.367 17.8144 10.1827 4.62981e-006 -1.12374e-006 3.00556e-006 -13.4225 6.4044 1.52931 -1.26957e-006 -9.87567e-007 3 -8.0289 -4.95145 -0.697699 -179.059 0.909404 -2.57427 180 7.01561e-015 178.984 -179.913 8.90413 179.344 2.80017e-006 -3.04261e-006 0.0157736 -15.7401 67.233 18.9364 8.13649 25.2327 -3.48774 -175.731 0.335844 3.68621 4.54188e-006 -4.6773e-006 -1.25986 -4.45169 -14.9949 -0.19328 1.74305e-006 1.7099e-006 -0.298944 25.2096 72.9166 -25.0334 -8.14413 25.346 3.49578 
57.8321 94.014 35.7568 -2.28359 -4.88203 2.33571 0.371955 -1.29625 -0.0047476 0.748412 1.41006 -0.0465448 0.74958 3.05506 -0.0591399 2.87453 17.1338 -1.16093 -2.12006 -11.4432 -0.71687 78.4748 -4.32997 -3.98742 105.455 25.9912 -57.9166 6.36111e-015 4.77083e-015 -6.36111e-015 -11.7378 83.2298 8.1004 -7.24351e-006 8.9195e-007 -2.99998 8.03005 -4.95103 0.697575 -60.7172 -0.903227 0.7829 -116.293 17.8197 10.2064 4.62981e-006 -1.12374e-006 3.00556e-006 -13.4611 6.502 1.5442 -1.26957e-006 -9.87567e-007 3 -8.0289 -4.95145 -0.697699 -179.055 0.95405 -2.57991 180 7.01561e-015 178.985 -179.916 8.91237 179.343 2.80017e-006 -3.04261e-006 0.016127 -15.736 67.2216 18.9261 8.13649 25.2327 -3.48774 -175.727 0.392583 3.68387 4.54188e-006 -4.6773e-006 -1.25893 -4.45107 -15.0136 -0.193613 1.74305e-006 1.7099e-006 -0.298944 25.1959 72.9112 -25.0261 -8.14404 25.3447 3.49557 
57.8172 94.018 35.749 -2.28232 -4.85333 2.35549 0.371874 -1.29276 -0.00497834 0.747698 1.41704 -0.047955 0.748874 3.06204 -0.0605338 2.81004 17.1192 -1.14108 -2.09636 -11.4354 -0.712005 78.4287 -4.33003 -3.98459 105.524 25.9754 -57.8809 1.59028e-014 1.74931e-014 6.36111e-015 -11.2304 83.1757 7.64932 -7.24351e-006 8.91949e-007 -2.99998 8.03005 -4.95103 0.697575 -60.7655 -0.914509 0.794954 -116.22 17.8244 10.2292 4.62981e-006 -1.12374e-006 3.00556e-006 -13.4991 6.60136 1.55939 -1.26957e-006 -9.87567e-007 3 -8.0289 -4.95145 -0.697699 -179.05 0.997551 -2.5858 180 7.01561e-015 178.985 -179.919 8.91973 179.343 2.80017e-006 -3.04261e-006 0.0164183 -15.7319 67.21 18.9158 8.13649 25.2327 -3.48774 -175.723 0.449245 3.6813 4.54188e-006 -4.6773e-006 -1.25798 -4.45028 -15.0329 -0.193898 1.74305e-006 1.7099e-006 -0.298944 25.1821 72.9059 -25.0189 -8.14395 25.3434 3.49536 
